<svg fill="#000000" xmlns="http://www.w3.org/2000/svg"  viewBox="0 0 100 100" width="100px" height="100px"><path d="M42.671,71.119c-0.106,0-0.215-0.018-0.322-0.054c-2.79-0.949-4.664-3.56-4.664-6.498c0-0.041,0.003-0.082,0.008-0.122l0.458-3.731c-8.297-4.535-13.422-13.13-13.422-22.599c0-14.209,11.561-25.769,25.77-25.769c14.44,0,26.188,11.578,26.188,25.81c0,9.178-5.41,17.958-13.842,22.559l0.458,3.731c0.005,0.041,0.008,0.082,0.008,0.122c0,1.845-0.729,3.578-2.05,4.881c-0.394,0.388-1.026,0.383-1.414-0.01c-0.388-0.394-0.384-1.027,0.01-1.415c0.924-0.91,1.438-2.115,1.454-3.398l-0.534-4.351c-0.052-0.417,0.163-0.821,0.536-1.012c8.124-4.164,13.374-12.449,13.374-21.107c0-13.128-10.851-23.81-24.188-23.81c-13.106,0-23.77,10.663-23.77,23.769c0,8.949,4.964,17.053,12.954,21.147c0.373,0.191,0.588,0.596,0.536,1.012l-0.534,4.351c0.024,2.057,1.348,3.879,3.309,4.546c0.522,0.178,0.803,0.746,0.624,1.269C43.476,70.857,43.087,71.119,42.671,71.119z"/><path d="M47.542,67.739c-0.016,0-0.03,0-0.045-0.002c-0.275-0.024-0.479-0.267-0.454-0.542c0.522-5.9,0.102-10.628-1.361-14.719c-1.56,0.421-3.202,0.194-4.427-0.692c-1.09-0.789-1.752-1.862-1.817-2.946c-0.054-0.902,0.302-1.734,1.029-2.407c0.373-0.345,0.77-0.555,1.18-0.623c0.954-0.162,1.965,0.448,2.698,1.625c0.752,1.207,1.392,2.457,1.922,3.766c0.271-0.125,0.535-0.276,0.785-0.452c0.527-0.37,0.973-0.811,1.348-1.288c-0.056-0.063-0.109-0.129-0.162-0.195c-1.03-1.296-1.374-2.805-0.943-4.137c0.237-0.732,0.97-1.395,1.782-1.611c0.609-0.165,1.171-0.051,1.575,0.317c0.529,0.479,0.66,1.259,0.389,2.318c-0.245,0.956-0.655,2.113-1.34,3.197c0.89,0.76,2.007,1.176,3.001,1.089c0.889-0.075,1.727-0.414,2.436-0.975c-1.006-1.255-1.462-2.746-1.235-4.137c0.133-0.813,0.812-1.632,1.65-1.99c0.624-0.266,1.23-0.232,1.71,0.096c0.594,0.407,0.665,1.093,0.723,1.645c0.158,1.517-0.326,3.077-1.328,4.288c-0.038,0.046-0.077,0.092-0.117,0.137c0.426,0.393,0.893,0.714,1.377,0.957c1.285-2.153,2.846-4.193,4.26-4.471c0.599-0.117,1.154,0.059,1.607,0.51c0.794,0.788,0.856,1.557,0.769,2.064c-0.317,1.833-2.979,3.128-3.281,3.27c-0.944,0.236-1.95,0.183-2.914-0.124c-0.857,1.515-1.641,3.134-2.194,4.438c-0.108,0.254-0.403,0.372-0.655,0.264c-0.255-0.108-0.373-0.401-0.265-0.656c0.182-0.428,1.028-2.381,2.175-4.431c-0.556-0.282-1.085-0.65-1.567-1.096c-0.011-0.01-0.021-0.019-0.031-0.029c-0.874,0.711-1.92,1.142-3.033,1.235c-1.237,0.104-2.587-0.377-3.667-1.271c-0.417,0.515-0.91,0.995-1.492,1.403c-0.319,0.225-0.655,0.416-1.001,0.573c1.513,4.227,1.95,9.091,1.414,15.145C48.015,67.543,47.798,67.739,47.542,67.739z M41.953,46.783c-0.047,0-0.095,0.004-0.143,0.012c-0.214,0.036-0.437,0.16-0.664,0.371c-0.508,0.469-0.747,1.012-0.711,1.613c0.047,0.784,0.56,1.583,1.405,2.195c0.938,0.68,2.238,0.859,3.479,0.556c-0.506-1.241-1.112-2.425-1.824-3.568C43.131,47.375,42.546,46.783,41.953,46.783z M58.871,50.828c0.706,0.196,1.416,0.224,2.069,0.065c0.597-0.292,2.433-1.381,2.626-2.503c0.069-0.402-0.09-0.789-0.487-1.183c-0.22-0.219-0.443-0.292-0.71-0.238C61.388,47.161,60.087,48.816,58.871,50.828z M56.363,44.158c-0.15,0-0.299,0.045-0.419,0.097c-0.516,0.22-0.979,0.761-1.057,1.231c-0.176,1.083,0.181,2.257,0.97,3.275c0.009-0.011,0.019-0.023,0.028-0.034c0.832-1.006,1.234-2.296,1.104-3.541c-0.05-0.477-0.097-0.795-0.295-0.931C56.593,44.184,56.477,44.158,56.363,44.158z M49.604,44.443c-0.096,0-0.19,0.017-0.271,0.039c-0.479,0.127-0.956,0.546-1.088,0.953c-0.321,0.994-0.051,2.145,0.741,3.164c0.541-0.918,0.878-1.887,1.085-2.696c0.118-0.461,0.198-1.066-0.092-1.33C49.872,44.476,49.736,44.443,49.604,44.443z"/><path d="M56.665 52.049c-2.237 4.781-2.515 9.733-2.415 14.94.012.643 1.012.645 1 0-.095-5.003.127-9.834 2.279-14.435C57.8 51.975 56.938 51.466 56.665 52.049L56.665 52.049zM57.228 77.614H43.592c-2.129 0-3.86-1.794-3.86-4s1.731-4 3.86-4h14.325c2.129 0 3.86 1.794 3.86 4 0 1.151-.089 1.342-.788 2.307-.324.447-.949.547-1.396.224-.447-.324-.547-.949-.223-1.396.407-.563.407-.563.407-1.134 0-1.103-.835-2-1.86-2H43.592c-1.025 0-1.86.897-1.86 2s.835 2 1.86 2h13.637c.553 0 1 .448 1 1S57.781 77.614 57.228 77.614z"/><path d="M57.681,83.614H44.775c-1.956,0-3.547-1.591-3.547-3.547v-0.906c0-1.956,1.591-3.547,3.547-3.547h12.906c1.956,0,3.547,1.591,3.547,3.547v0.906C61.228,82.023,59.638,83.614,57.681,83.614z M44.775,77.614c-0.853,0-1.547,0.694-1.547,1.547v0.906c0,0.853,0.694,1.547,1.547,1.547h12.906c0.853,0,1.547-0.694,1.547-1.547v-0.906c0-0.853-0.694-1.547-1.547-1.547H44.775z"/><path d="M51.129 87.625c-3.714 0-6.623-2.054-6.623-4.677 0-.552.447-1 1-1s1 .448 1 1c0 1.451 2.117 2.677 4.623 2.677 1.047 0 4.745-.611 4.745-2.552 0-.552.447-1 1-1s1 .448 1 1C57.874 86.512 53.33 87.625 51.129 87.625zM70.103 38.739c-.276 0-.5-.224-.5-.5 0-1.682-.233-3.345-.692-4.944-.076-.266.077-.542.343-.619.264-.078.542.077.618.342.485 1.688.731 3.445.731 5.22C70.603 38.516 70.38 38.739 70.103 38.739zM68.148 30.482c-.183 0-.358-.101-.446-.275-2.562-5.085-7.434-8.674-13.03-9.602-.966-.16-1.957-.241-2.943-.241-.276 0-.5-.224-.5-.5s.224-.5.5-.5c1.041 0 2.087.086 3.107.255 5.91.979 11.054 4.769 13.759 10.138.124.247.025.547-.222.671C68.302 30.465 68.224 30.482 68.148 30.482z"/></svg>